<?xml version="1.0" encoding="UTF-8"?>
<svg version="1.1" xmlns="http://www.w3.org/2000/svg" width="227" height="224">
<path d="M0 0 C0.73133148 0.00021149 1.46266296 0.00042297 2.21615601 0.00064087 C18.38967033 0.04734483 32.26282015 2.32427082 47 9.375 C47 10.035 47 10.695 47 11.375 C47.59167969 11.54515625 48.18335938 11.7153125 48.79296875 11.890625 C53.70459204 13.39696297 57.13287059 14.89458353 61 18.375 C63.39552558 20.18892939 65.79989182 21.99057986 68.20703125 23.7890625 C68.79871094 24.31242187 69.39039063 24.83578125 70 25.375 C70 26.035 70 26.695 70 27.375 C70.556875 27.601875 71.11375 27.82875 71.6875 28.0625 C78.58631268 31.97804233 84.04716602 39.62525216 88 46.375 C88.46019531 47.08398438 88.92039063 47.79296875 89.39453125 48.5234375 C92.46256335 53.34100857 95.00012977 58.28931364 97.1875 63.5625 C97.65542969 64.69042969 98.12335938 65.81835938 98.60546875 66.98046875 C102.58457017 78.47960238 103.55043758 90.09682362 103.4375 102.1875 C103.43293793 103.23074936 103.43293793 103.23074936 103.42828369 104.29507446 C103.25878125 130.58490334 94.36385153 153.47476332 76.5 173.125 C73.03143824 176.24670558 69.54619607 179.34159399 66 182.375 C64.6696875 183.5196875 64.6696875 183.5196875 63.3125 184.6875 C60.94959874 186.4117793 58.758226 187.42932252 56 188.375 C56 189.035 56 189.695 56 190.375 C40.43963554 198.04242597 40.43963554 198.04242597 32 199.375 C32 200.035 32 200.695 32 201.375 C22.06409616 203.74236054 12.73739179 204.85875644 2.53833008 204.76611328 C0.43440258 204.74997624 -1.66761289 204.76610343 -3.77148438 204.78515625 C-24.21845624 204.81615322 -48.66996346 197.87190926 -64 183.5 C-64.66 182.79875 -65.32 182.0975 -66 181.375 C-67.2655274 180.2854731 -68.53705968 179.20290559 -69.8125 178.125 C-78.92683204 170.17312436 -86.76977326 160.28657816 -92 149.375 C-92.48339844 148.45203125 -92.96679688 147.5290625 -93.46484375 146.578125 C-105.33962335 122.76556963 -105.29536243 92.64821984 -98 67.375 C-97.34 67.375 -96.68 67.375 -96 67.375 C-95.896875 66.50875 -95.79375 65.6425 -95.6875 64.75 C-94.94641627 61.1119526 -93.78551658 58.62719091 -92 55.375 C-91.63777344 54.68277344 -91.27554688 53.99054687 -90.90234375 53.27734375 C-86.86119307 45.70181047 -82.15543779 39.36845258 -76 33.375 C-75.38125 32.570625 -74.7625 31.76625 -74.125 30.9375 C-71.43176902 27.68978029 -68.43502945 24.83705313 -65 22.375 C-64.34 22.375 -63.68 22.375 -63 22.375 C-62.505 20.89 -62.505 20.89 -62 19.375 C-59.70621741 17.85837763 -57.46544936 16.50447819 -55.0625 15.1875 C-54.41603516 14.81947266 -53.76957031 14.45144531 -53.10351562 14.07226562 C-48.28446776 11.375 -48.28446776 11.375 -46 11.375 C-46 10.715 -46 10.055 -46 9.375 C-42.33862023 8.026791 -38.67137633 6.69574188 -35 5.375 C-34.21367188 5.09011719 -33.42734375 4.80523437 -32.6171875 4.51171875 C-21.81494723 0.73674231 -11.38221234 -0.03026716 0 0 Z M-36.359375 20.71875 C-38.91499461 21.8813924 -41.1858523 22.7678711 -43.828125 23.59375 C-49.39701555 25.85132766 -49.39701555 25.85132766 -53 30.375 C-54.62717243 39.26086435 -53.72656459 48.43266663 -53 57.375 C-60.92 57.705 -68.84 58.035 -77 58.375 C-77.33 59.035 -77.66 59.695 -78 60.375 C-76.08390066 60.54806704 -74.16706627 60.7129944 -72.25 60.875 C-70.64898437 61.01421875 -70.64898437 61.01421875 -69.015625 61.15625 C-63.68553813 61.52503439 -58.33948843 61.41460066 -53 61.375 C-53.00523682 62.19621338 -53.01047363 63.01742676 -53.01586914 63.86352539 C-53.07912821 75.70097837 -53.05378095 87.53754118 -53 99.375 C-52.99482361 100.6303656 -52.98964722 101.8857312 -52.98431396 103.17913818 C-52.95085509 110.86286223 -52.89771521 118.54611047 -52.81448841 126.22946644 C-52.77632853 129.77222823 -52.74463172 133.31475606 -52.72927856 136.85769653 C-52.71130564 140.88992349 -52.6614776 144.92119381 -52.609375 148.953125 C-52.60814133 150.15913864 -52.60690765 151.36515228 -52.6056366 152.60771179 C-52.45132036 161.52458857 -50.92195389 169.08151514 -45.1875 176.125 C-36.30475731 184.15545394 -22.40543084 186.70917481 -11 188.375 C-9.89398438 188.54128906 -8.78796875 188.70757812 -7.6484375 188.87890625 C2.79657748 190.04082244 12.73885334 188.20218608 23 186.375 C22.16823573 184.14744046 22.16823573 184.14744046 19.7421875 183.515625 C18.79601562 183.22171875 17.84984375 182.9278125 16.875 182.625 C10.76580719 180.45389905 6.00387597 178.10767529 2.84511948 172.22377205 C0.24932245 165.98476612 -0.58313582 160.6932436 -0.54589844 153.96826172 C-0.55623611 152.98169083 -0.56657379 151.99511993 -0.57722473 150.97865295 C-0.60646015 147.75382738 -0.60814784 144.52963469 -0.609375 141.3046875 C-0.62436962 139.05452288 -0.64109945 136.80436921 -0.65948486 134.55422974 C-0.70302629 128.65901155 -0.72312828 122.76394181 -0.73822021 116.86859131 C-0.76129397 109.78064406 -0.81370843 102.69285941 -0.86116028 95.6050415 C-0.92982304 84.86165206 -0.96139515 74.11872878 -1 63.375 C16.82 63.705 34.64 64.035 53 64.375 C53.99 61.075 54.98 57.775 56 54.375 C37.31825729 54.16377427 18.67265754 54.81760724 0 55.375 C0 41.515 0 27.655 0 13.375 C-12.88227499 13.375 -24.65738578 15.32661095 -36.359375 20.71875 Z " fill="#0D1A50" transform="translate(108,9.625)"/>
<path d="M0 0 C0.66 0.33 1.32 0.66 2 1 C2 13.87 2 26.74 2 40 C8.6 40 15.2 40 22 40 C22 40.33 22 40.66 22 41 C14.41 41 6.82 41 -1 41 C-1.02290685 35.32164603 -1.04283457 29.64345119 -1.05493164 23.96508789 C-1.05997256 22.03181415 -1.06680519 20.09854424 -1.07543945 18.1652832 C-1.08751565 15.39273128 -1.09323057 12.62022959 -1.09765625 9.84765625 C-1.10281754 8.97786636 -1.10797882 8.10807648 -1.11329651 7.21192932 C-1.11349185 5.14094186 -1.06208168 3.07005676 -1 1 C-0.67 0.67 -0.34 0.34 0 0 Z " fill="#061242" transform="translate(110,23)"/>
<path d="M0 0 C0.33 0 0.66 0 1 0 C1.33 13.2 1.66 26.4 2 40 C13.55 40 25.1 40 37 40 C37 40.33 37 40.66 37 41 C31.89154206 41.16723554 26.78293596 41.32783286 21.67407227 41.48217773 C19.93475677 41.53567262 18.19549688 41.59100755 16.45629883 41.64819336 C13.96187334 41.72989627 11.46732517 41.80506164 8.97265625 41.87890625 C8.19036148 41.90594131 7.40806671 41.93297638 6.60206604 41.96083069 C4.73539067 42.01288386 2.86736326 42.01187025 1 42 C0 41 0 41 -0.11352539 37.12280273 C-0.11336621 35.39305833 -0.10766849 33.66330919 -0.09765625 31.93359375 C-0.0962413 31.02497086 -0.09482635 30.11634796 -0.09336853 29.18019104 C-0.08775193 26.26592779 -0.07519665 23.35174019 -0.0625 20.4375 C-0.05748714 18.46679798 -0.05292386 16.49609476 -0.04882812 14.52539062 C-0.03777711 9.68356441 -0.02050138 4.84179505 0 0 Z " fill="#A2A7C9" transform="translate(107,24)"/>
<path d="M0 0 C2.19050021 0.09017996 4.378466 0.24666208 6.5625 0.4375 C7.76003906 0.53933594 8.95757812 0.64117188 10.19140625 0.74609375 C11.11824219 0.82988281 12.04507813 0.91367187 13 1 C13 1.33 13 1.66 13 2 C7.06 2.33 1.12 2.66 -5 3 C-3.68 2.34 -2.36 1.68 -1 1 C-0.67 0.67 -0.34 0.34 0 0 Z " fill="#03093E" transform="translate(95,20)"/>
<path d="M0 0 C-0.33 0.99 -0.66 1.98 -1 3 C-5.29 2.67 -9.58 2.34 -14 2 C-14 1.67 -14 1.34 -14 1 C-4.58997722 -0.14806378 -4.58997722 -0.14806378 0 0 Z " fill="#727D9D" transform="translate(125,197)"/>
<path d="M0 0 C0.33 0 0.66 0 1 0 C1.33 5.28 1.66 10.56 2 16 C1.67 15.34 1.34 14.68 1 14 C0.34 14 -0.32 14 -1 14 C-0.67 9.38 -0.34 4.76 0 0 Z " fill="#060D43" transform="translate(54,160)"/>
</svg>
